<svg width="24" height="24" viewBox="0 0 24 24" fill="none" xmlns="http://www.w3.org/2000/svg">
<path d="M10.0556 11.3471C11.1597 10.8193 11.7361 10.0207 11.7361 8.77761C11.7361 6.32623 9.90972 5.729 7.80208 5.729H2V18.0346H7.96528C10.2014 18.0346 12.3021 16.9616 12.3021 14.4616C12.3021 12.9165 11.5694 11.7741 10.0556 11.3471ZM4.70486 7.8297H7.24306C8.21875 7.8297 9.09722 8.104 9.09722 9.23595C9.09722 10.2811 8.41319 10.7012 7.44792 10.7012H4.70486V7.8297ZM7.59722 15.9443H4.70486V12.5554H7.65278C8.84375 12.5554 9.59722 13.0519 9.59722 14.3123C9.59722 15.5554 8.69792 15.9443 7.59722 15.9443ZM20.0451 7.58664H15.0556V6.37484H20.0451V7.58664ZM22 13.7082C22 11.0728 20.4583 8.87484 17.6632 8.87484C14.9479 8.87484 13.1042 10.9165 13.1042 13.5901C13.1042 16.3644 14.8507 18.2672 17.6632 18.2672C19.7917 18.2672 21.1701 17.3089 21.8333 15.2707H19.6736C19.441 16.0311 18.4826 16.4339 17.7396 16.4339C16.3056 16.4339 15.5521 15.5936 15.5521 14.1665H21.9792C21.9896 14.0207 22 13.8644 22 13.7082ZM15.5556 12.6248C15.6354 11.4547 16.4132 10.7221 17.5868 10.7221C18.816 10.7221 19.434 11.4443 19.5382 12.6248H15.5556Z" fill="white"/>
</svg>
