<svg width="24" height="24" viewBox="0 0 24 24" fill="none" xmlns="http://www.w3.org/2000/svg">
<path d="M16.1742 8.84536C16.3125 8.84536 16.4508 8.85005 16.5867 8.85708C16.0148 5.84067 12.8766 3.53442 9.08906 3.53442C4.89844 3.53442 1.5 6.36099 1.5 9.84849C1.5 11.7493 2.52187 13.4625 4.12266 14.6204C4.25156 14.7118 4.33594 14.8618 4.33594 15.0329C4.33594 15.0891 4.32422 15.1407 4.31016 15.1946C4.18125 15.6704 3.97734 16.4321 3.96797 16.4672C3.95156 16.5282 3.92813 16.5891 3.92813 16.6524C3.92813 16.7907 4.04062 16.9055 4.18125 16.9055C4.23516 16.9055 4.27969 16.8844 4.32656 16.8586L5.98828 15.9C6.1125 15.8274 6.24609 15.7829 6.39141 15.7829C6.46641 15.7829 6.54141 15.7946 6.61406 15.8157C7.38984 16.0383 8.22656 16.1625 9.09141 16.1625C9.23203 16.1625 9.37031 16.1602 9.50859 16.1532C9.34219 15.661 9.25312 15.143 9.25312 14.6063C9.25312 11.4235 12.3516 8.84536 16.1742 8.84536ZM11.6203 6.81802C12.1781 6.81802 12.6328 7.27036 12.6328 7.82817C12.6328 8.38599 12.1805 8.83833 11.6203 8.83833C11.0625 8.83833 10.6078 8.38599 10.6078 7.82817C10.6078 7.27036 11.0625 6.81802 11.6203 6.81802ZM6.56016 8.83833C6.00234 8.83833 5.54766 8.38599 5.54766 7.82817C5.54766 7.27036 6 6.81802 6.56016 6.81802C7.12031 6.81802 7.57266 7.27036 7.57266 7.82817C7.57266 8.38599 7.11797 8.83833 6.56016 8.83833Z" fill="white"/>
<path d="M20.3134 18.5789C21.647 17.6133 22.4978 16.1883 22.4978 14.6016C22.4978 11.6953 19.6665 9.33984 16.172 9.33984C12.6798 9.33984 9.84619 11.6953 9.84619 14.6016C9.84619 17.5078 12.6774 19.8633 16.172 19.8633C16.8939 19.8633 17.5923 19.7602 18.2368 19.575C18.2978 19.5562 18.3587 19.5469 18.422 19.5469C18.5439 19.5469 18.654 19.5844 18.7571 19.643L20.1423 20.4398C20.1821 20.4633 20.2196 20.4797 20.2642 20.4797C20.3204 20.4797 20.3743 20.4586 20.4142 20.4187C20.454 20.3789 20.4751 20.325 20.4751 20.2687C20.4751 20.2172 20.454 20.1656 20.4423 20.1141C20.4353 20.0859 20.2642 19.4508 20.1564 19.0523C20.1446 19.0078 20.1353 18.9633 20.1353 18.9187C20.1376 18.7805 20.2079 18.6562 20.3134 18.5789ZM14.0673 13.7625C13.6009 13.7625 13.2235 13.3852 13.2235 12.9211C13.2235 12.457 13.6009 12.0797 14.0673 12.0797C14.5337 12.0797 14.911 12.457 14.911 12.9211C14.911 13.3852 14.5314 13.7625 14.0673 13.7625ZM18.2837 13.7625C17.8173 13.7625 17.4399 13.3852 17.4399 12.9211C17.4399 12.457 17.8173 12.0797 18.2837 12.0797C18.7501 12.0797 19.1274 12.457 19.1274 12.9211C19.1251 13.3852 18.7478 13.7625 18.2837 13.7625Z" fill="white"/>
</svg>
