<svg width="19" height="18" viewBox="0 0 19 18" fill="none" xmlns="http://www.w3.org/2000/svg">
<path d="M0.248406 9.76805H15.0666L11.2824 13.4113C11.2593 13.4344 11.241 13.4618 11.2285 13.4919C11.216 13.5221 11.2096 13.5544 11.2096 13.587C11.2096 13.6196 11.216 13.652 11.2285 13.6821C11.241 13.7122 11.2593 13.7396 11.2824 13.7627L12.0421 14.5225C12.0652 14.5455 12.0926 14.5638 12.1227 14.5763C12.1529 14.5888 12.1852 14.5952 12.2178 14.5952C12.2504 14.5952 12.2827 14.5888 12.3129 14.5763C12.343 14.5638 12.3704 14.5455 12.3935 14.5225L17.1568 9.93477L17.1725 9.92023L17.1982 9.89449L17.9334 9.18732C17.9798 9.13526 18.0054 9.06795 18.0054 8.99821C18.0054 8.92848 17.9798 8.86117 17.9334 8.80911L17.1736 8.0762L17.1591 8.06501L12.3946 3.47732C12.3715 3.45425 12.3441 3.43594 12.314 3.42346C12.2838 3.41097 12.2515 3.40454 12.2189 3.40454C12.1863 3.40454 12.154 3.41097 12.1238 3.42346C12.0937 3.43594 12.0663 3.45425 12.0432 3.47732L11.2835 4.23709C11.2604 4.26016 11.2421 4.28754 11.2296 4.31769C11.2171 4.34783 11.2107 4.38014 11.2107 4.41276C11.2107 4.44539 11.2171 4.4777 11.2296 4.50784C11.2421 4.53798 11.2604 4.56537 11.2835 4.58844L15.0319 8.19705H0.248406C0.182525 8.19705 0.119342 8.22322 0.0727566 8.2698C0.0261713 8.31639 0 8.37957 0 8.44545L0 9.52076C0 9.58664 0.0261713 9.64983 0.0727566 9.69641C0.119342 9.743 0.182525 9.76917 0.248406 9.76917V9.76805Z" fill="white"/>
</svg>
