<svg width="24" height="24" viewBox="0 0 24 24" fill="none" xmlns="http://www.w3.org/2000/svg">
<path d="M12 2.5C10.1211 2.5 8.28435 3.05717 6.72209 4.10104C5.15982 5.14491 3.94218 6.62861 3.22315 8.36451C2.50412 10.1004 2.31598 12.0105 2.68254 13.8534C3.0491 15.6962 3.95389 17.3889 5.28249 18.7175C6.61109 20.0461 8.30383 20.9509 10.1466 21.3175C11.9895 21.684 13.8996 21.4959 15.6355 20.7768C17.3714 20.0578 18.8551 18.8402 19.899 17.2779C20.9428 15.7156 21.5 13.8789 21.5 12C21.5 9.48044 20.4991 7.06408 18.7175 5.28248C16.9359 3.50089 14.5196 2.5 12 2.5ZM12 4.4C13.952 4.39922 15.8283 5.15518 17.2345 6.509C15.7829 7.36039 14.2447 8.05464 12.646 8.58C11.8504 7.20898 10.9382 5.90902 9.9195 4.6945C10.5959 4.49975 11.2962 4.40062 12 4.4ZM8.0955 5.4925C9.0908 6.63108 9.98407 7.85496 10.765 9.15C8.90025 9.61303 6.98638 9.84907 5.065 9.853H4.723C5.26185 8.02866 6.46524 6.47271 8.0955 5.4925ZM6.3 17.0445C5.06382 15.6563 4.38678 13.8588 4.4 12V11.7245H5.046C7.29501 11.7044 9.53133 11.3849 11.696 10.7745C12 11.354 12.285 11.9525 12.5605 12.57C11.0799 13.0919 9.70101 13.8666 8.485 14.8595L8.2 15.0875C7.52277 15.6957 6.88795 16.3496 6.3 17.0445ZM12 19.6C10.4858 19.6034 9.00579 19.1498 7.7535 18.2985C8.216 17.768 8.71095 17.2667 9.2355 16.7975L9.5395 16.541C10.6635 15.5956 11.9515 14.8647 13.3395 14.3845C13.9108 15.9292 14.3556 17.5177 14.6695 19.1345C13.8143 19.4467 12.9104 19.6044 12 19.6ZM16.3985 18.1845C16.0877 16.7467 15.6815 15.3313 15.1825 13.9475H15.5055C15.5429 13.9382 15.5821 13.9382 15.6195 13.9475H16.275C17.2747 13.9504 18.2669 14.1205 19.2105 14.451C18.6921 15.9618 17.7075 17.2691 16.3985 18.1845ZM16.275 12H15.686C15.563 11.9845 15.4385 11.9845 15.3155 12C15.0573 12.0159 14.8003 12.0476 14.546 12.095H14.451C14.1755 11.4585 13.8905 10.841 13.577 10.195C15.2781 9.6108 16.9119 8.84646 18.4505 7.915C19.2138 9.1399 19.6125 10.5568 19.6 12V12.4845C18.5233 12.1522 17.4017 11.9888 16.275 12Z" />
</svg>
