<svg width="24" height="24" viewBox="0 0 24 24" fill="none" xmlns="http://www.w3.org/2000/svg">
<path d="M20.625 2.625H3.375C2.96016 2.625 2.625 2.96016 2.625 3.375V20.625C2.625 21.0398 2.96016 21.375 3.375 21.375H20.625C21.0398 21.375 21.375 21.0398 21.375 20.625V3.375C21.375 2.96016 21.0398 2.625 20.625 2.625ZM8.18672 18.6023H5.40469V9.65391H8.18672V18.6023ZM6.79688 8.43047C5.90625 8.43047 5.18437 7.70859 5.18437 6.81797C5.18437 5.92734 5.90625 5.20547 6.79688 5.20547C7.68516 5.20547 8.40937 5.92734 8.40937 6.81797C8.40703 7.70859 7.68516 8.43047 6.79688 8.43047ZM18.6023 18.6023H15.8227V14.25C15.8227 13.2117 15.8039 11.8781 14.3766 11.8781C12.9305 11.8781 12.7078 13.0078 12.7078 14.175V18.6023H9.93047V9.65391H12.5977V10.8773H12.6352C13.0055 10.1742 13.9125 9.43125 15.2672 9.43125C18.0844 9.43125 18.6023 11.2852 18.6023 13.6945V18.6023Z" />
</svg>
