<svg width="56" height="56" viewBox="0 0 56 56" fill="none" xmlns="http://www.w3.org/2000/svg">
<path opacity="0.8" d="M18.1229 27.9116C18.1229 31.5772 18.8439 35.2069 20.2449 38.5935C21.6459 41.9801 23.6994 45.0571 26.288 47.649C28.8767 50.2409 31.9499 52.2968 35.332 53.6993C38.7142 55.1019 42.3392 55.8236 46 55.8233V27.9116H18.1229Z" fill="#222222"/>
<path d="M23.7042 22.3228C23.7039 25.9883 24.4247 29.6179 25.8254 33.0045C27.2261 36.391 29.2794 39.4681 31.8678 42.06C34.4563 44.6519 37.5293 46.7078 40.9114 48.1104C44.2934 49.513 47.9183 50.2347 51.579 50.2344V22.3228H23.7042Z" fill="#222222"/>
<path opacity="0.6" d="M18.1228 27.9117H32.0602V0C24.6673 1.10308e-07 17.5773 2.94069 12.3498 8.17514C7.12222 13.4096 4.18542 20.509 4.18542 27.9117C4.18542 35.3143 7.12222 42.4138 12.3498 47.6482C17.5773 52.8827 24.6673 55.8234 32.0602 55.8234V52.081C27.822 49.6327 24.3025 46.11 21.8559 41.8671C19.4092 37.6243 18.1217 32.811 18.1228 27.9117Z" fill="#222222"/>
</svg>
